<svg xmlns="http://www.w3.org/2000/svg" width="37.49" height="37.49" viewBox="0 0 37.49 37.49">
  <path id="Behance" d="M20.374,38.744A18.745,18.745,0,1,1,39.119,20,18.766,18.766,0,0,1,20.374,38.744ZM26.66,16.5a4.79,4.79,0,0,0-4.64,2.651,6.658,6.658,0,0,0-.661,2.651,5.6,5.6,0,0,0,1.3,3.8,5.227,5.227,0,0,0,4,1.478s.069,0,.189,0a6.4,6.4,0,0,0,2.6-.537A3.218,3.218,0,0,0,31.382,23.4h-2.43a1.317,1.317,0,0,1-.364.885,2.463,2.463,0,0,1-1.848.6s-.033,0-.085,0a2.714,2.714,0,0,1-1.333-.348,2.2,2.2,0,0,1-1.011-2.056h7.15a6.357,6.357,0,0,0-1.2-4.589A4.579,4.579,0,0,0,26.66,16.5ZM9.25,12.986v13.8h7.227a5.546,5.546,0,0,0,2.347-.555,3.637,3.637,0,0,0,1.989-3.518,4.2,4.2,0,0,0-.849-2.738,2.285,2.285,0,0,0-1.735-.689,2.4,2.4,0,0,0,2.106-2.624c0-2.267-1.5-3.676-3.906-3.676H9.25Zm14.44.814v1.7h5.693V13.8ZM16.126,24.332H12.414V20.644h4.015a1.467,1.467,0,0,1,.748.243,1.871,1.871,0,0,1,.708,1.652c0,1.165-.558,1.768-1.658,1.792Zm12.691-3.688H24.285a2.46,2.46,0,0,1,2.427-2.127,2.015,2.015,0,0,1,1.5.553,2.437,2.437,0,0,1,.61,1.573ZM16.18,18.518H12.411V15.439h4.018c.01,0,.976.016.976,1.435C17.405,18.318,16.816,18.518,16.18,18.518Z" transform="translate(-1.629 -1.254)" fill="#fff"/>
</svg>
