<svg xmlns="http://www.w3.org/2000/svg" width="37.49" height="37.49" viewBox="0 0 37.49 37.49">
  <path id="Twitter" d="M20.374,38.744A18.745,18.745,0,1,1,39.119,20,18.766,18.766,0,0,1,20.374,38.744ZM9.86,26.606h0A12.272,12.272,0,0,0,28.75,16.269c0-.168,0-.352-.014-.561a8.661,8.661,0,0,0,2.152-2.23,8.594,8.594,0,0,1-2.478.679,4.322,4.322,0,0,0,1.9-2.387,8.575,8.575,0,0,1-2.74,1.047,4.319,4.319,0,0,0-7.352,3.937,12.3,12.3,0,0,1-8.893-4.51A4.323,4.323,0,0,0,12.659,18a4.322,4.322,0,0,1-1.954-.539v.054a4.325,4.325,0,0,0,3.46,4.23,4.323,4.323,0,0,1-1.948.074,4.316,4.316,0,0,0,4.03,3A8.716,8.716,0,0,1,9.86,26.606Z" transform="translate(-1.629 -1.254)" fill="#fff"/>
</svg>
