<svg xmlns="http://www.w3.org/2000/svg" width="92.023" height="34.091" viewBox="0 0 92.023 34.091">
  <path id="Logo" d="M75.617,35.621a.439.439,0,0,1-.48-.384V19.823C71.1,14.062,66.927,8.348,62.893,2.634c-.239-.288-.048-.624.384-.624h6.674c.1,0,.336.048.384.144l8.018,11.187L86.373,2.155c.048-.1.239-.144.336-.144h6.722c.432,0,.624.336.384.624L81.572,19.823V35.237a.44.44,0,0,1-.481.384Zm-21.245,0c-.1,0-.336-.049-.384-.145l-7.97-11.187L38,35.476c-.049.1-.288.145-.384.145H30.893c-.384,0-.576-.337-.337-.625L42.08,18.815C38.239,13.486,34.4,7.964,30.557,2.634c-.239-.288-.048-.624.337-.624h6.722c.1,0,.336.048.384.144l8.018,11.187,7.97-11.187c.049-.1.288-.144.384-.144h6.722c.432,0,.625.336.384.624L49.907,18.815C53.8,24.145,57.638,29.667,61.479,35c.24.288.048.625-.384.625Zm-50.748,0a.439.439,0,0,1-.48-.384V29.812a.439.439,0,0,1,.48-.384H25.279a.439.439,0,0,1,.481.384v5.425a.439.439,0,0,1-.481.384Zm2-12.628a12.428,12.428,0,0,1,0-17.748,12.635,12.635,0,0,1,17.9,0,12.426,12.426,0,0,1,0,17.748,12.678,12.678,0,0,1-17.9,0ZM8.282,14.11a6.291,6.291,0,1,0,12.58,0,6.271,6.271,0,0,0-6.29-6.386A6.346,6.346,0,0,0,8.282,14.11Z" transform="translate(-1.896 -1.53)"/>
</svg>
